<svg xmlns="http://www.w3.org/2000/svg" width="48" height="48" viewBox="0 0 48 48" fill="none"><path d="M10 41V10.5L24 3l14 7.5V41H10Z" fill="#17202d"/><path d="M14 40V14h6v26h-6Zm14 0V14h6v26h-6Z" fill="#27354a"/><path d="M13.2 12.4 24 6.6l10.8 5.8V15H13.2v-2.6Z" fill="#49627c"/><rect x="19.5" y="17" width="3" height="4" rx="0.6" fill="#fff4a8"/><rect x="25.5" y="17" width="3" height="4" rx="0.6" fill="#ffcf5a"/><rect x="19.5" y="24" width="3" height="4" rx="0.6" fill="#7cf7d4"/><rect x="25.5" y="24" width="3" height="4" rx="0.6" fill="#ff8f1f"/><rect x="22.8" y="8.4" width="2.4" height="2" rx="0.5" fill="#f4f9ff"/><path d="M9 41h30" stroke="#f4f9ff" stroke-opacity="0.45" stroke-width="1.2" stroke-linecap="round"/></svg>